<svg width="1366" height="768" viewBox="0 0 1366 768" fill="none" xmlns="http://www.w3.org/2000/svg">
<path d="M0 428.224L32.4425 435.852C65.0273 443.346 129.912 458.601 194.94 477.47C259.967 496.472 324.852 519.221 389.879 524.307C454.906 529.526 519.791 516.946 585.103 493.796C650.273 470.645 715.727 436.654 780.897 421.265C846.209 405.876 911.094 409.088 976.121 423.942C1041.15 438.929 1106.03 465.693 1171.06 488.71C1236.09 511.594 1300.97 530.864 1333.56 540.365L1366 550V0H1333.56C1300.97 0 1236.09 0 1171.06 0C1106.03 0 1041.15 0 976.121 0C911.094 0 846.209 0 780.897 0C715.727 0 650.273 0 585.103 0C519.791 0 454.906 0 389.879 0C324.852 0 259.967 0 194.94 0C129.912 0 65.0273 0 32.4425 0H0V428.224Z" fill="#0098CD"/>
<path d="M0 349.27L32.4425 347.664C65.0273 346.192 129.912 342.981 194.94 346.326C259.967 349.672 324.852 359.574 389.879 378.978C454.906 398.382 519.791 427.287 585.103 434.647C650.273 442.007 715.727 427.822 780.897 417.117C846.209 406.411 911.094 399.185 976.121 403.869C1041.15 408.552 1106.03 425.146 1171.06 420.462C1236.09 415.779 1300.97 389.818 1333.56 376.971L1366 363.99V0H1333.56C1300.97 0 1236.09 0 1171.06 0C1106.03 0 1041.15 0 976.121 0C911.094 0 846.209 0 780.897 0C715.727 0 650.273 0 585.103 0C519.791 0 454.906 0 389.879 0C324.852 0 259.967 0 194.94 0C129.912 0 65.0273 0 32.4425 0H0V349.27Z" fill="#0795CB"/>
<path d="M0 369.343L32.4425 366.667C65.0273 363.99 129.912 358.637 194.94 353.954C259.967 349.27 324.852 345.255 389.879 349.939C454.906 354.623 519.791 368.005 585.103 376.034C650.273 384.063 715.727 386.74 780.897 377.64C846.209 368.406 911.094 347.53 976.121 338.297C1041.15 329.197 1106.03 331.873 1171.06 333.479C1236.09 334.951 1300.97 335.487 1333.56 335.62L1366 335.888V0H1333.56C1300.97 0 1236.09 0 1171.06 0C1106.03 0 1041.15 0 976.121 0C911.094 0 846.209 0 780.897 0C715.727 0 650.273 0 585.103 0C519.791 0 454.906 0 389.879 0C324.852 0 259.967 0 194.94 0C129.912 0 65.0273 0 32.4425 0H0V369.343Z" fill="#0F91C9"/>
<path d="M0 381.387L32.4425 382.324C65.0273 383.126 129.912 385 194.94 379.38C259.967 373.759 324.852 360.912 389.879 363.053C454.906 365.328 519.791 382.725 585.103 381.119C650.273 379.647 715.727 359.039 780.897 358.905C846.209 358.637 911.094 378.71 976.121 373.09C1041.15 367.603 1106.03 336.289 1171.06 337.494C1236.09 338.564 1300.97 372.019 1333.56 388.747L1366 405.474V0H1333.56C1300.97 0 1236.09 0 1171.06 0C1106.03 0 1041.15 0 976.121 0C911.094 0 846.209 0 780.897 0C715.727 0 650.273 0 585.103 0C519.791 0 454.906 0 389.879 0C324.852 0 259.967 0 194.94 0C129.912 0 65.0273 0 32.4425 0H0V381.387Z" fill="#158EC7"/>
<path d="M0 374.696L32.4425 354.623C65.0273 334.55 129.912 294.404 194.94 289.988C259.967 285.438 324.852 316.752 389.879 333.479C454.906 350.207 519.791 352.348 585.103 337.628C650.273 322.908 715.727 291.326 780.897 275.401C846.209 259.611 911.094 259.611 976.121 272.324C1041.15 285.036 1106.03 310.462 1171.06 327.859C1236.09 345.255 1300.97 354.623 1333.56 359.307L1366 363.99V0H1333.56C1300.97 0 1236.09 0 1171.06 0C1106.03 0 1041.15 0 976.121 0C911.094 0 846.209 0 780.897 0C715.727 0 650.273 0 585.103 0C519.791 0 454.906 0 389.879 0C324.852 0 259.967 0 194.94 0C129.912 0 65.0273 0 32.4425 0H0V374.696Z" fill="#1A8BC5"/>
<path d="M0 294.404L32.4425 285.706C65.0273 277.007 129.912 259.611 194.94 258.273C259.967 256.934 324.852 271.654 389.879 267.238C454.906 262.689 519.791 239.136 585.103 237.798C650.273 236.46 715.727 257.336 780.897 276.071C846.209 294.805 911.094 311.399 976.121 313.808C1041.15 316.217 1106.03 304.708 1171.06 300.827C1236.09 297.08 1300.97 301.095 1333.56 303.102L1366 305.109V0H1333.56C1300.97 0 1236.09 0 1171.06 0C1106.03 0 1041.15 0 976.121 0C911.094 0 846.209 0 780.897 0C715.727 0 650.273 0 585.103 0C519.791 0 454.906 0 389.879 0C324.852 0 259.967 0 194.94 0C129.912 0 65.0273 0 32.4425 0H0V294.404Z" fill="#1F88C3"/>
<path d="M0 218.127L32.4425 228.163C65.0273 238.2 129.912 258.273 194.94 255.195C259.967 251.983 324.852 225.754 389.879 226.156C454.906 226.557 519.791 253.857 585.103 260.28C650.273 266.703 715.727 252.518 780.897 247.166C846.209 241.813 911.094 245.292 976.121 242.214C1041.15 239.136 1106.03 229.234 1171.06 225.219C1236.09 221.204 1300.97 223.078 1333.56 223.881L1366 224.818V0H1333.56C1300.97 0 1236.09 0 1171.06 0C1106.03 0 1041.15 0 976.121 0C911.094 0 846.209 0 780.897 0C715.727 0 650.273 0 585.103 0C519.791 0 454.906 0 389.879 0C324.852 0 259.967 0 194.94 0C129.912 0 65.0273 0 32.4425 0H0V218.127Z" fill="#2384C1"/>
<path d="M0 191.363L32.4425 200.328C65.0273 209.161 129.912 227.092 194.94 231.107C259.967 235.122 324.852 225.219 389.879 213.71C454.906 202.068 519.791 188.686 585.103 189.623C650.273 190.426 715.727 205.681 780.897 210.766C846.209 215.852 911.094 211.034 976.121 209.696C1041.15 208.358 1106.03 210.499 1171.06 217.056C1236.09 223.479 1300.97 234.185 1333.56 239.538L1366 244.891V0H1333.56C1300.97 0 1236.09 0 1171.06 0C1106.03 0 1041.15 0 976.121 0C911.094 0 846.209 0 780.897 0C715.727 0 650.273 0 585.103 0C519.791 0 454.906 0 389.879 0C324.852 0 259.967 0 194.94 0C129.912 0 65.0273 0 32.4425 0H0V191.363Z" fill="#2781BF"/>
<path d="M0 180.657L32.4425 184.002C65.0273 187.348 129.912 194.039 194.94 194.976C259.967 195.779 324.852 190.961 389.879 184.404C454.906 177.981 519.791 169.951 585.103 163.929C650.273 157.908 715.727 153.893 780.897 156.569C846.209 159.246 911.094 168.613 976.121 166.606C1041.15 164.599 1106.03 151.217 1171.06 154.562C1236.09 157.908 1300.97 177.981 1333.56 188.017L1366 198.054V0H1333.56C1300.97 0 1236.09 0 1171.06 0C1106.03 0 1041.15 0 976.121 0C911.094 0 846.209 0 780.897 0C715.727 0 650.273 0 585.103 0C519.791 0 454.906 0 389.879 0C324.852 0 259.967 0 194.94 0C129.912 0 65.0273 0 32.4425 0H0V180.657Z" fill="#2B7EBC"/>
<path d="M0 119.1L32.4425 126.058C65.0273 132.883 129.912 146.8 194.94 149.878C259.967 152.956 324.852 145.462 389.879 136.898C454.906 128.467 519.791 119.1 585.103 121.509C650.273 124.051 715.727 138.236 780.897 141.18C846.209 144.124 911.094 135.56 976.121 130.073C1041.15 124.453 1106.03 121.776 1171.06 124.72C1236.09 127.53 1300.97 136.095 1333.56 140.243L1366 144.526V0H1333.56C1300.97 0 1236.09 0 1171.06 0C1106.03 0 1041.15 0 976.121 0C911.094 0 846.209 0 780.897 0C715.727 0 650.273 0 585.103 0C519.791 0 454.906 0 389.879 0C324.852 0 259.967 0 194.94 0C129.912 0 65.0273 0 32.4425 0H0V119.1Z" fill="#2F7BBA"/>
<path d="M0 115.085L32.4425 113.345C65.0273 111.472 129.912 107.993 194.94 98.7591C259.967 89.6594 324.852 74.9392 389.879 72.5304C454.906 69.9878 519.791 79.8905 585.103 88.3212C650.273 96.7518 715.727 103.978 780.897 99.2944C846.209 94.6107 911.094 78.017 976.121 72.5304C1041.15 66.91 1106.03 72.2628 1171.06 75.2068C1236.09 78.017 1300.97 78.5523 1333.56 78.6861L1366 78.9538V0H1333.56C1300.97 0 1236.09 0 1171.06 0C1106.03 0 1041.15 0 976.121 0C911.094 0 846.209 0 780.897 0C715.727 0 650.273 0 585.103 0C519.791 0 454.906 0 389.879 0C324.852 0 259.967 0 194.94 0C129.912 0 65.0273 0 32.4425 0H0V115.085Z" fill="#3377B8"/>
<path d="M0 36.1314L32.4425 38.5401C65.0273 41.0827 129.912 45.9002 194.94 48.1752C259.967 50.4501 324.852 49.9148 389.879 46.837C454.906 43.7591 519.791 37.871 585.103 41.7518C650.273 45.4988 715.727 58.8808 780.897 65.5718C846.209 72.2628 911.094 72.2628 976.121 68.6496C1041.15 65.1703 1106.03 57.944 1171.06 53.7956C1236.09 49.5134 1300.97 48.1752 1333.56 47.5061L1366 46.837V0H1333.56C1300.97 0 1236.09 0 1171.06 0C1106.03 0 1041.15 0 976.121 0C911.094 0 846.209 0 780.897 0C715.727 0 650.273 0 585.103 0C519.791 0 454.906 0 389.879 0C324.852 0 259.967 0 194.94 0C129.912 0 65.0273 0 32.4425 0H0V36.1314Z" fill="#3674B5"/>
</svg>
